Coordinates
version=1
nRows=8
nColumns=40
inDegrees=yes

Units are S.I. units (second, meters, Newtons, ...)
Angles are in degrees.

endheader
time	pelvis_tilt	pelvis_list	pelvis_rotation	pelvis_tx	pelvis_ty	pelvis_tz	hip_flexion_r	hip_adduction_r	hip_rotation_r	knee_angle_r	knee_angle_r_beta	ankle_angle_r	subtalar_angle_r	mtp_angle_r	hip_flexion_l	hip_adduction_l	hip_rotation_l	knee_angle_l	knee_angle_l_beta	ankle_angle_l	subtalar_angle_l	mtp_angle_l	lumbar_extension	lumbar_bending	lumbar_rotation	arm_flex_r	arm_add_r	arm_rot_r	elbow_flex_r	pro_sup_r	wrist_flex_r	wrist_dev_r	arm_flex_l	arm_add_l	arm_rot_l	elbow_flex_l	pro_sup_l	wrist_flex_l	wrist_dev_l
     30.00500000	     -6.40898459	     -5.73051697	      3.15418835	      1.02527368	      0.92989174	      0.51274584	     12.61725988	      3.27546979	    -18.48300867	     11.32699808	     11.32699808	      7.08602493	      3.49182775	     -6.97275703	     43.71126768	    -11.63740723	      2.79230454	     55.74963375	     55.74963375	      7.02484850	    -17.75870119	     11.19382754	    -14.38195518	      5.97996543	      3.50411494	     34.32844530	    -19.06033880	     14.00062678	     59.85559806	     44.76395606	      0.00000000	      0.00000000	    -10.45090895	     -8.12808930	     -8.40194758	     50.15258057	     47.30341669	      0.00000000	      0.00000000
     30.01657143	     -6.63055781	     -5.89243948	      3.28164992	      1.02399943	      0.92960261	      0.51308268	     12.30130252	      3.51041736	    -18.56069764	     11.16974890	     11.16974890	      7.35017209	      3.48260666	     -7.08174559	     44.16145708	    -11.46455207	      2.93806025	     52.32437961	     52.32437961	      7.30079091	    -17.19634538	     11.51878627	    -14.14429774	      6.09974699	      3.97250128	     36.23247457	    -19.22619999	     13.72512329	     60.65461391	     44.75747191	      0.00000000	      0.00000000	    -11.21359050	     -8.04990343	     -8.37328154	     49.63699771	     47.28597473	      0.00000000	      0.00000000
     30.02814286	     -6.60066446	     -5.69293081	      3.43560117	      1.02308424	      0.92997701	      0.51307414	     11.33283358	      3.47017564	    -18.49583329	     10.35084589	     10.35084589	      7.53677321	      3.75745525	     -7.05379745	     43.91877846	    -10.87802366	      3.01265801	     48.45903529	     48.45903529	      7.36236838	    -16.71407120	     11.73876826	    -14.28897987	      5.87986026	      3.32037157	     38.45137550	    -18.37942545	     13.82759435	     62.82110296	     44.69581184	      0.00000000	      0.00000000	    -12.03002339	     -8.08477711	     -8.28893270	     47.75184174	     47.24225257	      0.00000000	      0.00000000
     30.03971429	     -6.72086680	     -5.83846253	      3.58250636	      1.02223858	      0.92976475	      0.51302951	     10.62575978	      3.73955997	    -18.71285136	      9.69668212	      9.69668212	      7.64667801	      4.18824335	     -7.31048919	     43.79747862	    -10.63236712	      3.31250715	     44.52012866	     44.52012866	      7.10409933	    -15.88530966	     10.38974077	    -14.16667687	      6.06820387	      3.76852062	     39.88608928	    -19.16854272	     14.66506387	     65.91808799	     44.60419574	      0.00000000	      0.00000000	    -11.40228415	     -7.71415107	     -8.80328560	     43.87880662	     47.21102999	      0.00000000	      0.00000000
     30.05128571	     -6.81101676	     -5.84884400	      3.67773176	      1.02154190	      0.92957828	      0.51290279	      9.93374838	      3.86190506	    -18.71488033	      9.18155544	      9.18155544	      7.91743709	      4.36656416	     -7.35724309	     43.46452636	    -10.32183813	      3.47417256	     40.55481526	     40.55481526	      7.40600440	    -14.60900105	     10.58759288	    -14.05777291	      6.05568377	      3.68020745	     41.67892983	    -18.71423695	     14.45272658	     67.39295558	     44.57798930	      0.00000000	      0.00000000	    -12.19875843	     -7.72708776	     -8.77184757	     43.11056400	     47.18170369	      0.00000000	      0.00000000
     30.06285714	     -6.92202859	     -5.97302944	      3.76034229	      1.02097870	      0.92916632	      0.51265989	      9.25762863	      4.09527788	    -18.77260089	      8.65039204	      8.65039204	      8.13646257	      4.67349519	     -7.42469286	     43.07960070	    -10.13001241	      3.70985783	     36.66282619	     36.66282619	      7.76591099	    -13.12247623	     10.77055547	    -13.93345474	      6.16544546	      3.66048213	     43.37792761	    -18.35412066	     14.31232777	     68.92245665	     44.54641275	      0.00000000	      0.00000000	    -12.86548752	     -7.68928661	     -8.74376252	     42.25273111	     47.15477716	      0.00000000	      0.00000000
     30.07442857	     -6.96769726	     -6.09865054	      3.82188516	      1.02070501	      0.92875694	      0.51231280	      8.44585927	      4.34033347	    -18.85210956	      8.04009312	      8.04009312	      8.37061386	      5.10427326	     -7.49786988	     42.50548038	    -10.00506326	      3.80860742	     32.88987669	     32.88987669	      8.12338691	    -11.55361715	     11.02405654	    -13.83316840	      6.30528705	      3.60032684	     44.93293586	    -17.94184724	     14.23792447	     70.64739032	     44.50645143	      0.00000000	      0.00000000	    -13.45642714	     -7.65521429	     -8.71164375	     41.27622749	     47.12714814	      0.00000000	      0.00000000
     30.08600000	     -7.16277237	     -6.52448430	      3.84016370	      1.02036997	      0.92771836	      0.51198796	      8.02947242	      4.83662366	    -18.93547449	      7.83974639	      7.83974639	      8.68176309	      5.27140694	     -7.66012112	     42.25070014	    -10.15457766	      4.05266446	     29.59186354	     29.59186354	      8.38288203	    -10.21464805	     11.43432408	    -13.50404601	      6.76955723	      3.92976266	     46.49925881	    -17.85673612	     14.01834739	     71.60342014	     44.49185262	      0.00000000	      0.00000000	    -14.08136708	     -7.58901095	     -8.69618979	     40.81472034	     47.11100484	      0.00000000	      0.00000000
